<?xml version="1.0" encoding="UTF-8" standalone="no"?>
<svg
   xmlns:dc="http://purl.org/dc/elements/1.1/"
   xmlns:cc="http://creativecommons.org/ns#"
   xmlns:rdf="http://www.w3.org/1999/02/22-rdf-syntax-ns#"
   xmlns:svg="http://www.w3.org/2000/svg"
   xmlns="http://www.w3.org/2000/svg"
   xmlns:sodipodi="http://sodipodi.sourceforge.net/DTD/sodipodi-0.dtd"
   xmlns:inkscape="http://www.inkscape.org/namespaces/inkscape"
   height="24px"
   id="Layer_1"
   version="1.2"
   viewBox="0 0 24 24"
   width="24px"
   xml:space="preserve"
   sodipodi:docname="icon_home.svg"
   inkscape:version="0.92.4 (5da689c313, 2019-01-14)"><metadata
     id="metadata9"><rdf:RDF><cc:Work
         rdf:about=""><dc:format>image/svg+xml</dc:format><dc:type
           rdf:resource="http://purl.org/dc/dcmitype/StillImage" /></cc:Work></rdf:RDF></metadata><defs
     id="defs7" /><sodipodi:namedview
     pagecolor="#ffffff"
     bordercolor="#666666"
     borderopacity="1"
     objecttolerance="10"
     gridtolerance="10"
     guidetolerance="10"
     inkscape:pageopacity="0"
     inkscape:pageshadow="2"
     inkscape:window-width="1920"
     inkscape:window-height="1017"
     id="namedview5"
     showgrid="false"
     inkscape:zoom="19.666667"
     inkscape:cx="-1.8059616"
     inkscape:cy="11.43392"
     inkscape:window-x="-8"
     inkscape:window-y="-8"
     inkscape:window-maximized="1"
     inkscape:current-layer="Layer_1" /><path
     d="M12,3c0,0-6.186,5.34-9.643,8.232C2.154,11.416,2,11.684,2,12c0,0.553,0.447,1,1,1h2v7c0,0.553,0.447,1,1,1h3  c0.553,0,1-0.448,1-1v-4h4v4c0,0.552,0.447,1,1,1h3c0.553,0,1-0.447,1-1v-7h2c0.553,0,1-0.447,1-1c0-0.316-0.154-0.584-0.383-0.768  C18.184,8.34,12,3,12,3z"
     id="path2"
     style="fill:#fdfdfd;fill-opacity:1" /></svg>